<svg width="34" height="34" viewBox="0 0 34 34" fill="none" xmlns="http://www.w3.org/2000/svg">
<mask id="path-1-outside-1_27_3552" maskUnits="userSpaceOnUse" x="0" y="0" width="34" height="34" fill="black">
<rect fill="white" width="34" height="34"/>
<path d="M1 5.57143C1 3.0467 3.0467 1 5.57143 1H28.4286C30.9533 1 33 3.0467 33 5.57143V28.4286C33 30.9533 30.9533 33 28.4286 33H5.57143C3.0467 33 1 30.9533 1 28.4286V5.57143Z"/>
</mask>
<path d="M5.57143 1.57143H28.4286V0.428571H5.57143V1.57143ZM32.4286 5.57143V28.4286H33.5714V5.57143H32.4286ZM28.4286 32.4286H5.57143V33.5714H28.4286V32.4286ZM1.57143 28.4286V5.57143H0.428571V28.4286H1.57143ZM5.57143 32.4286C3.36229 32.4286 1.57143 30.6377 1.57143 28.4286H0.428571C0.428571 31.2689 2.73111 33.5714 5.57143 33.5714V32.4286ZM32.4286 28.4286C32.4286 30.6377 30.6377 32.4286 28.4286 32.4286V33.5714C31.2689 33.5714 33.5714 31.2689 33.5714 28.4286H32.4286ZM28.4286 1.57143C30.6377 1.57143 32.4286 3.36229 32.4286 5.57143H33.5714C33.5714 2.73111 31.2689 0.428571 28.4286 0.428571V1.57143ZM5.57143 0.428571C2.73111 0.428571 0.428571 2.73111 0.428571 5.57143H1.57143C1.57143 3.36229 3.36229 1.57143 5.57143 1.57143V0.428571Z" fill="#A1A4AA" mask="url(#path-1-outside-1_27_3552)"/>
<path d="M15.1486 22.1962C15.0039 22.1962 14.8591 22.1429 14.7448 22.0286L10.1201 17.4038C9.89911 17.1829 9.89911 16.8172 10.1201 16.5962L14.7448 11.9714C14.9658 11.7505 15.3315 11.7505 15.5524 11.9714C15.7734 12.1924 15.7734 12.5581 15.5524 12.7791L11.3315 17L15.5524 21.221C15.7734 21.4419 15.7734 21.8076 15.5524 22.0286C15.4458 22.1429 15.2934 22.1962 15.1486 22.1962Z" fill="#171717"/>
<path d="M23.4761 17.5714H10.6532C10.3408 17.5714 10.0818 17.3124 10.0818 17C10.0818 16.6876 10.3408 16.4286 10.6532 16.4286H23.4761C23.7885 16.4286 24.0475 16.6876 24.0475 17C24.0475 17.3124 23.7885 17.5714 23.4761 17.5714Z" fill="#171717"/>
</svg>
