<svg width="16" height="16" viewBox="0 0 16 16" fill="none" xmlns="http://www.w3.org/2000/svg">
<path d="M14.909 11.564C14.963 11.2135 15 10.8595 15 10.5C15 7.2205 12.7305 4.469 9.6815 3.7125C9.722 3.563 9.75 3.4085 9.75 3.25C9.75 2.285 8.965 1.5 8 1.5C7.035 1.5 6.25 2.285 6.25 3.25C6.25 3.409 6.278 3.563 6.3185 3.7125C3.2695 4.4685 1 7.2205 1 10.5C1 10.8595 1.037 11.2135 1.091 11.564C0.777867 11.6524 0.50203 11.8403 0.305194 12.0994C0.108359 12.3585 0.00122788 12.6746 0 13C0 13.827 0.673 14.5 1.5 14.5H14.5C15.327 14.5 16 13.827 16 13C15.9989 12.6746 15.8918 12.3584 15.6949 12.0994C15.4981 11.8403 15.2222 11.6523 14.909 11.564ZM7.25 3.25C7.25 2.8365 7.5865 2.5 8 2.5C8.4135 2.5 8.75 2.8365 8.75 3.25C8.75 3.3505 8.7275 3.446 8.691 3.535C8.4635 3.5125 8.233 3.5 8 3.5C7.767 3.5 7.5365 3.5125 7.309 3.535C7.27088 3.44478 7.25083 3.34795 7.25 3.25ZM8 4.5C11.3085 4.5 14 7.1915 14 10.5C14 10.839 13.962 11.172 13.9065 11.5H2.0935C2.03437 11.1699 2.00309 10.8354 2 10.5C2 7.1915 4.6915 4.5 8 4.5ZM14.5 13.5H1.5C1.36739 13.5 1.24021 13.4473 1.14645 13.3536C1.05268 13.2598 1 13.1326 1 13C1 12.8674 1.05268 12.7402 1.14645 12.6464C1.24021 12.5527 1.36739 12.5 1.5 12.5H14.5C14.6326 12.5 14.7598 12.5527 14.8536 12.6464C14.9473 12.7402 15 12.8674 15 13C15 13.1326 14.9473 13.2598 14.8536 13.3536C14.7598 13.4473 14.6326 13.5 14.5 13.5Z" fill="#444955"/>
<path d="M3.60053 9.43079C3.72505 9.47605 3.86245 9.47004 3.98254 9.41407C4.10264 9.3581 4.19561 9.25676 4.24103 9.13229C4.42018 8.63856 4.6953 8.18517 5.05053 7.79829C5.40515 7.41053 5.83305 7.09683 6.30953 6.87529C6.42974 6.8192 6.52274 6.71765 6.56808 6.59299C6.61342 6.46832 6.60737 6.33075 6.55128 6.21054C6.49519 6.09033 6.39364 5.99733 6.26897 5.95199C6.14431 5.90666 6.00674 5.9127 5.88653 5.96879C5.29122 6.24596 4.75663 6.63815 4.31353 7.12279C3.86948 7.60632 3.52569 8.17308 3.30203 8.79029C3.2795 8.85197 3.26936 8.91749 3.27219 8.9831C3.27503 9.04871 3.29079 9.11311 3.31857 9.17261C3.34635 9.23212 3.3856 9.28555 3.43407 9.32986C3.48254 9.37416 3.53878 9.40846 3.60053 9.43079Z" fill="#444955"/>
</svg>
