<svg width="16" height="16" viewBox="0 0 16 16" fill="none" xmlns="http://www.w3.org/2000/svg">
<path d="M14.3533 7.24643L13.3399 6.23309C13.1666 6.05976 13.0266 5.71976 13.0266 5.47976V4.03976C13.0266 3.45309 12.5466 2.97309 11.9599 2.97309H10.5266C10.2866 2.97309 9.94661 2.83309 9.77328 2.65976L8.75994 1.64643C8.34661 1.23309 7.66661 1.23309 7.25328 1.64643L6.22661 2.65976C6.05994 2.83309 5.71994 2.97309 5.47328 2.97309H4.03994C3.45328 2.97309 2.97328 3.45309 2.97328 4.03976V5.47309C2.97328 5.71309 2.83328 6.05309 2.65994 6.22643L1.64661 7.23976C1.23328 7.65309 1.23328 8.33309 1.64661 8.74643L2.65994 9.75976C2.83328 9.93309 2.97328 10.2731 2.97328 10.5131V11.9464C2.97328 12.5331 3.45328 13.0131 4.03994 13.0131H5.47328C5.71328 13.0131 6.05328 13.1531 6.22661 13.3264L7.23994 14.3398C7.65328 14.7531 8.33328 14.7531 8.74661 14.3398L9.75994 13.3264C9.93328 13.1531 10.2733 13.0131 10.5133 13.0131H11.9466C12.5333 13.0131 13.0133 12.5331 13.0133 11.9464V10.5131C13.0133 10.2731 13.1533 9.93309 13.3266 9.75976L14.3399 8.74643C14.7733 8.33976 14.7733 7.65976 14.3533 7.24643ZM5.33328 5.99976C5.33328 5.63309 5.63328 5.33309 5.99994 5.33309C6.36661 5.33309 6.66661 5.63309 6.66661 5.99976C6.66661 6.36643 6.37328 6.66643 5.99994 6.66643C5.63328 6.66643 5.33328 6.36643 5.33328 5.99976ZM6.35328 10.3531C6.25328 10.4531 6.12661 10.4998 5.99994 10.4998C5.87328 10.4998 5.74661 10.4531 5.64661 10.3531C5.45328 10.1598 5.45328 9.83976 5.64661 9.64643L9.64661 5.64643C9.83994 5.45309 10.1599 5.45309 10.3533 5.64643C10.5466 5.83976 10.5466 6.15976 10.3533 6.35309L6.35328 10.3531ZM9.99994 10.6664C9.62661 10.6664 9.32661 10.3664 9.32661 9.99976C9.32661 9.63309 9.62661 9.33309 9.99328 9.33309C10.3599 9.33309 10.6599 9.63309 10.6599 9.99976C10.6599 10.3664 10.3666 10.6664 9.99994 10.6664Z" fill="#0DA500"/>
</svg>
