<svg width="24" height="24" viewBox="0 0 24 24" fill="none" xmlns="http://www.w3.org/2000/svg">
<rect width="24" height="24" rx="8" fill="white"/>
<path d="M14.96 6.06689C13.7533 6.06689 12.6733 6.65356 12 7.55356C11.3266 6.65356 10.2466 6.06689 9.03998 6.06689C6.99331 6.06689 5.33331 7.73356 5.33331 9.79356C5.33331 10.5869 5.45998 11.3202 5.67998 12.0002C6.73331 15.3336 9.97998 17.3269 11.5866 17.8736C11.8133 17.9536 12.1866 17.9536 12.4133 17.8736C14.02 17.3269 17.2666 15.3336 18.32 12.0002C18.54 11.3202 18.6666 10.5869 18.6666 9.79356C18.6666 7.73356 17.0066 6.06689 14.96 6.06689Z" fill="#FF0000"/>
</svg>
