<svg width="25" height="25" viewBox="0 0 25 25" fill="none" xmlns="http://www.w3.org/2000/svg">
<path d="M6.21692 2.33643H19.4169C20.5169 2.33643 21.4169 3.23643 21.4169 4.33643V6.53643C21.4169 7.33643 20.9169 8.33643 20.4169 8.83643L16.1169 12.6364C15.5169 13.1364 15.1169 14.1364 15.1169 14.9364V19.2364C15.1169 19.8364 14.7169 20.6364 14.2169 20.9364L12.8169 21.8364C11.5169 22.6364 9.71692 21.7364 9.71692 20.1364V14.8364C9.71692 14.1364 9.31692 13.2364 8.91692 12.7364L5.11692 8.73643C4.61692 8.23643 4.21692 7.33643 4.21692 6.73643V4.43643C4.21692 3.23643 5.11692 2.33643 6.21692 2.33643Z" stroke="#A5ABBF" stroke-width="1.5" stroke-miterlimit="10" stroke-linecap="round" stroke-linejoin="round"/>
</svg>
