<svg width="25" height="24" viewBox="0 0 25 24" fill="none" xmlns="http://www.w3.org/2000/svg">
<path d="M12.5186 2.91016C9.20862 2.91016 6.51862 5.60016 6.51862 8.91016V11.8002C6.51862 12.4102 6.25862 13.3402 5.94862 13.8602L4.79862 15.7702C4.08862 16.9502 4.57862 18.2602 5.87862 18.7002C10.1886 20.1402 14.8386 20.1402 19.1486 18.7002C20.3586 18.3002 20.8886 16.8702 20.2286 15.7702L19.0786 13.8602C18.7786 13.3402 18.5186 12.4102 18.5186 11.8002V8.91016C18.5186 5.61016 15.8186 2.91016 12.5186 2.91016Z" stroke="white" stroke-width="1.5" stroke-miterlimit="10" stroke-linecap="round"/>
<path d="M14.3719 3.20141C14.0619 3.11141 13.7419 3.04141 13.4119 3.00141C12.4519 2.88141 11.5319 2.95141 10.6719 3.20141C10.9619 2.46141 11.6819 1.94141 12.5219 1.94141C13.3619 1.94141 14.0819 2.46141 14.3719 3.20141Z" stroke="white" stroke-width="1.5" stroke-miterlimit="10" stroke-linecap="round" stroke-linejoin="round"/>
<path d="M15.5195 19.0586C15.5195 20.7086 14.1695 22.0586 12.5195 22.0586C11.6995 22.0586 10.9395 21.7186 10.3995 21.1786C9.85953 20.6386 9.51953 19.8786 9.51953 19.0586" stroke="white" stroke-width="1.5" stroke-miterlimit="10"/>
</svg>
